<?xml version="1.0" encoding="UTF-8" standalone="no"?>
<svg
   xmlns:dc="http://purl.org/dc/elements/1.1/"
   xmlns:cc="http://creativecommons.org/ns#"
   xmlns:rdf="http://www.w3.org/1999/02/22-rdf-syntax-ns#"
   xmlns:svg="http://www.w3.org/2000/svg"
   xmlns="http://www.w3.org/2000/svg"
   xmlns:sodipodi="http://sodipodi.sourceforge.net/DTD/sodipodi-0.dtd"
   xmlns:inkscape="http://www.inkscape.org/namespaces/inkscape"
   version="1.1"
   x="0px"
   y="0px"
   viewBox="0 0 1024 1024"
   enable-background="new 0 0 100 100"
   xml:space="preserve"
   id="svg2"
   inkscape:version="0.91 r13725"
   sodipodi:docname="vader.svg"
   width="1024"
   height="1024"><metadata
     id="metadata14"><rdf:RDF><cc:Work
         rdf:about=""><dc:format>image/svg+xml</dc:format><dc:type
           rdf:resource="http://purl.org/dc/dcmitype/StillImage" /><dc:title></dc:title></cc:Work></rdf:RDF></metadata><defs
     id="defs12" /><sodipodi:namedview
     pagecolor="#ffffff"
     bordercolor="#666666"
     borderopacity="1"
     objecttolerance="10"
     gridtolerance="10"
     guidetolerance="10"
     inkscape:pageopacity="0"
     inkscape:pageshadow="2"
     inkscape:window-width="1628"
     inkscape:window-height="909"
     id="namedview10"
     showgrid="false"
     inkscape:zoom="0.69042969"
     inkscape:cx="512"
     inkscape:cy="512"
     inkscape:window-x="0"
     inkscape:window-y="0"
     inkscape:window-maximized="0"
     inkscape:current-layer="layer1" /><g
     inkscape:groupmode="layer"
     id="layer1"
     inkscape:label="Layer 1"><ellipse
       style="opacity:0.73000004;fill:#e6e6e6;fill-opacity:1;fill-rule:nonzero;stroke:#000000;stroke-width:6;stroke-linecap:round;stroke-linejoin:round;stroke-miterlimit:4;stroke-dasharray:none;stroke-opacity:1"
       id="path4145"
       cx="512"
       cy="512"
       rx="448.51358"
       ry="448.51361" /></g><g
     inkscape:groupmode="layer"
     id="layer2"
     inkscape:label="Layer 2"><path
       d="m 720.0177,462.07782 0,-74.88973 c 0,-91.52183 -74.89621,-166.41157 -166.41157,-166.41157 l -83.21226,0 c -91.52183,0 -166.41804,74.88974 -166.41804,166.41157 l 0,74.88973 -83.19931,216.34022 c 0,41.59966 130.38399,124.80544 291.22348,124.80544 160.83949,0 291.22348,-83.20578 291.22348,-124.80544 L 720.0177,462.07782 Z M 387.18809,735.6208 c -8.62022,0 -15.60311,-6.98936 -15.60311,-15.6031 0,-8.62669 6.98289,-15.59664 15.60311,-15.59664 8.62668,0 15.6031,6.96995 15.6031,15.59664 0,8.61374 -6.97642,15.6031 -15.6031,15.6031 M 366.38826,512 c 0,-11.44185 5.78564,-28.17102 12.83325,-37.16659 0,0 19.77084,-25.23937 59.97262,-25.23937 20.39859,0 34.62971,9.3774 34.62971,9.3774 9.5586,6.28396 17.37633,20.78689 17.37633,32.22226 l 0,31.20621 c 0,5.71446 -9.35798,10.39992 -20.79983,10.39992 l -83.21225,0 C 375.74624,532.80583 366.38826,523.43538 366.38826,512 m 83.19931,208.0177 -20.79983,0 0,-41.59966 20.79983,-20.8063 0,62.40596 z m 52.00604,0 -31.19974,0 0,-83.20579 31.19974,0 0,83.20579 z m -20.79982,-104.01209 0,-31.19974 c 0,-17.24043 13.98519,-31.19974 31.20621,-31.19974 17.22749,0 31.19974,13.95931 31.19974,31.19974 l 0,31.19974 -62.40595,0 z m 72.81234,104.01209 -31.19974,0 0,-83.20579 31.19974,0 0,83.20579 z m 41.59965,0 -20.79982,0 0,-62.40596 20.79982,20.8063 0,41.59966 z m 41.60613,15.6031 c -8.62669,0 -15.60311,-6.98936 -15.60311,-15.6031 0,-8.62669 6.97642,-15.59664 15.60311,-15.59664 8.61374,0 15.59664,6.96995 15.59664,15.59664 0,8.61374 -6.9829,15.6031 -15.59664,15.6031 m 0,-202.8145 -83.20578,0 c -11.44832,0 -20.79983,-4.69193 -20.79983,-10.39991 l 0,-31.20622 c 0,-11.44184 7.81126,-25.94477 17.37633,-32.22226 0,0 14.23112,-9.37739 34.62971,-9.37739 40.2212,0 59.97262,25.23936 59.97262,25.23936 7.05408,8.9891 12.82678,25.71827 12.82678,37.16012 0,11.43538 -9.37093,20.8063 -20.79983,20.8063 m 128.57193,155.30625 c -1.22961,0.48537 -2.51099,0.69893 -3.76649,0.69893 -4.1742,0 -8.09601,-2.51746 -9.68156,-6.62048 L 676.28887,487.88022 c -20.00382,-49.98042 -44.73192,-69.49239 -88.176,-69.49239 -28.81818,0 -53.00267,17.87465 -53.22271,18.0688 -12.83971,9.62332 -32.92766,9.57802 -45.77385,0 -0.21357,-0.19415 -24.63104,-18.0688 -53.23566,-18.0688 -43.43112,0 -68.15923,19.51197 -88.19541,69.57653 L 272.07068,682.191 c -2.07739,5.35204 -8.13484,8.00541 -13.46747,5.92155 -5.33909,-2.07093 -7.99893,-8.10249 -5.9086,-13.47394 l 75.64045,-194.29784 c 23.2008,-58.02466 55.35835,-82.75277 107.54559,-82.75277 35.69106,0 64.50924,21.31756 65.71296,22.20418 5.44912,4.10301 15.37013,4.10301 20.8063,0 1.2102,-0.88662 30.04132,-22.20418 65.70649,-22.20418 52.19372,0 84.34479,24.72811 107.52618,82.66864 l 75.68575,194.38197 c 2.07092,5.37145 -0.5695,11.40301 -5.93449,13.47394"
       id="path4"
       inkscape:connector-curvature="0" /></g></svg>