<?xml version="1.0" encoding="UTF-8" standalone="no"?>
<svg
   xmlns:dc="http://purl.org/dc/elements/1.1/"
   xmlns:cc="http://creativecommons.org/ns#"
   xmlns:rdf="http://www.w3.org/1999/02/22-rdf-syntax-ns#"
   xmlns:svg="http://www.w3.org/2000/svg"
   xmlns="http://www.w3.org/2000/svg"
   xmlns:sodipodi="http://sodipodi.sourceforge.net/DTD/sodipodi-0.dtd"
   xmlns:inkscape="http://www.inkscape.org/namespaces/inkscape"
   version="1.1"
   x="0px"
   y="0px"
   viewBox="0 0 1024 1024"
   enable-background="new 0 0 100 100"
   xml:space="preserve"
   id="svg2"
   inkscape:version="0.91 r13725"
   sodipodi:docname="yoda.svg"
   width="1024"
   height="1024"><metadata
     id="metadata22"><rdf:RDF><cc:Work
         rdf:about=""><dc:format>image/svg+xml</dc:format><dc:type
           rdf:resource="http://purl.org/dc/dcmitype/StillImage" /><dc:title></dc:title></cc:Work></rdf:RDF></metadata><defs
     id="defs20" /><sodipodi:namedview
     pagecolor="#ffffff"
     bordercolor="#666666"
     borderopacity="1"
     objecttolerance="10"
     gridtolerance="10"
     guidetolerance="10"
     inkscape:pageopacity="0"
     inkscape:pageshadow="2"
     inkscape:window-width="1603"
     inkscape:window-height="888"
     id="namedview18"
     showgrid="false"
     inkscape:zoom="0.66992188"
     inkscape:cx="512"
     inkscape:cy="512"
     inkscape:window-x="0"
     inkscape:window-y="0"
     inkscape:window-maximized="0"
     inkscape:current-layer="layer1" /><g
     inkscape:groupmode="layer"
     id="layer1"
     inkscape:label="Layer 1"><ellipse
       style="opacity:0.73000004;fill:#e6e6e6;fill-opacity:1;fill-rule:nonzero;stroke:#000000;stroke-width:6;stroke-linecap:round;stroke-linejoin:round;stroke-miterlimit:4;stroke-dasharray:none;stroke-opacity:1"
       id="path4157"
       cx="512"
       cy="512"
       rx="448.42166"
       ry="448.42169" /></g><g
     inkscape:groupmode="layer"
     id="layer2"
     inkscape:label="Layer 2"><g
       style=""
       id="g4"
       transform="matrix(8.7325387,0,0,8.7325387,-100.01036,147.7452)"><path
         id="path12"
         d="m 66.725898,51.14802 c 0.607161,0.350433 1.564756,0.681612 3.361852,0.681612 1.797094,0 2.754689,-0.329895 3.361851,-0.681612 0.02953,0.07188 0.05776,0.150186 0.0783,0.220786 l 1.211756,-0.336314 c -0.106542,-0.383808 -0.364554,-1.055151 -0.893414,-1.242563 -0.266996,-0.09371 -0.557099,-0.05006 -0.795856,0.120662 -0.277265,0.197681 -0.925503,0.661075 -2.961356,0.661075 -2.035851,0 -2.685373,-0.463394 -2.961355,-0.661075 -0.240041,-0.170724 -0.530144,-0.215651 -0.795856,-0.120662 -0.52886,0.187412 -0.786872,0.858755 -0.893414,1.242563 l 1.211756,0.336314 c 0.01797,-0.0706 0.04622,-0.148903 0.07573,-0.220786 z m 8.722329,9.425763 -0.359419,0 0,0 c 14.279204,-2.065376 15.222679,-10.373089 15.222679,-10.373089 0,0 0.808693,0.718838 3.540273,-0.314491 2.73287,-1.033331 10.55922,-5.119155 13.65793,-7.768586 3.0987,-2.649431 11.09193,-9.070196 10.05859,-11.899336 -1.03333,-2.829141 -24.92185,4.265533 -25.01171,4.175679 -0.31449,-0.763766 -0.35942,-1.48132 -2.424793,-3.54798 -2.065376,-2.065375 -5.388718,-1.885666 -5.388718,-1.795811 -0.269564,-0.628983 -2.424794,-0.718838 -2.424794,-0.718838 -0.08986,-1.346538 -1.03333,-1.256682 -2.424795,-2.918995 -1.391465,-1.66103 -4.624953,-1.123185 -4.669879,-1.03333 -0.75093,-1.677717 -3.538994,-2.05254 -5.098616,-2.065376 l 0,0 -0.04107,0 -0.04108,0 0,0 c -1.559622,0.01284 -4.347686,0.387659 -5.098616,2.065376 -0.04493,-0.08986 -3.278415,-0.628984 -4.669879,1.03333 -1.391465,1.661029 -2.33494,1.571173 -2.424795,2.918995 0,0 -2.15523,0.08986 -2.424794,0.718838 0,-0.08986 -3.323343,-0.269564 -5.388718,1.795811 -2.065375,2.065376 -2.110303,2.784214 -2.424794,3.54798 -0.08986,0.08986 -23.978383,-7.00482 -25.011713,-4.175679 -1.033329,2.82914 6.959893,9.249905 10.058598,11.899336 3.098706,2.649431 10.925054,6.735255 13.657923,7.768586 2.732867,1.033329 3.540276,0.314491 3.540276,0.314491 0,0 0.943475,8.307713 15.222679,10.373089 l 0,0 0,0 c 2.943942,0.674561 7.736186,0.757071 10.369238,0 z M 82.18605,36.995897 c 3.951041,-0.359419 5.703209,2.514648 5.882919,4.445242 0.04493,0 -1.66103,3.323342 -4.939445,3.771333 -3.278414,0.449274 -6.465691,-2.51465 -7.678729,-3.771333 0,0.0013 2.784213,-4.085823 6.735255,-4.445242 z m -25.140076,8.217858 c -3.278415,-0.449274 -4.984371,-3.771332 -4.939444,-3.771332 0.17971,-1.930594 1.930594,-4.804662 5.882919,-4.445243 3.951042,0.359419 6.735255,4.445243 6.735255,4.445243 -1.213039,1.256683 -4.400315,4.220606 -7.67873,3.771332 z m 7.649207,5.063957 c 0.132214,-1.983223 3.850918,-4.318163 5.324535,-4.463214 l 0,-0.0077 c 0.02182,0 0.04493,0.0026 0.06804,0.0039 0.02311,-0.0013 0.04621,-0.0039 0.06803,-0.0039 l 0,0.0077 c 1.474902,0.145051 5.192322,2.479991 5.324536,4.463214 0.134782,2.026867 -1.002522,6.456706 -5.324536,6.945772 l 0,0.01669 c -0.02311,-0.0026 -0.04493,-0.0064 -0.06803,-0.009 -0.02311,0.0026 -0.04493,0.0064 -0.06804,0.009 l 0,-0.01669 c -4.323297,-0.489066 -5.460601,-4.920189 -5.324535,-6.945772 z m -4.864994,-9.665804 a 1.9986264,2.2232633 0 0 1 -1.998626,2.223264 1.9986264,2.2232633 0 0 1 -1.998626,-2.223264 1.9986264,2.2232633 0 0 1 1.998626,-2.223263 1.9986264,2.2232633 0 0 1 1.998626,2.223263 z m 24.512377,0 a 1.9986264,2.2232633 0 0 1 -1.998626,2.223264 1.9986264,2.2232633 0 0 1 -1.998627,-2.223264 1.9986264,2.2232633 0 0 1 1.998627,-2.223263 1.9986264,2.2232633 0 0 1 1.998626,2.223263 z"
         inkscape:connector-curvature="0" /></g></g></svg>